<?xml version="1.0" standalone="no"?>
<!DOCTYPE svg PUBLIC "-//W3C//DTD SVG 20010904//EN"
 "http://www.w3.org/TR/2001/REC-SVG-20010904/DTD/svg10.dtd">
<svg version="1.0" xmlns="http://www.w3.org/2000/svg"
 width="1024.000000pt" height="1024.000000pt" viewBox="0 0 1024.000000 1024.000000"
 preserveAspectRatio="xMidYMid meet">

<g transform="translate(0.000000,1024.000000) scale(0.100000,-0.100000)"
fill="#000000" stroke="none">
<path d="M1749 9625 c-32 -17 -59 -71 -59 -117 0 -70 92 -572 321 -1750 l151
-776 -164 -289 c-308 -539 -526 -930 -604 -1085 -48 -95 -56 -151 -30 -211 12
-29 155 -237 293 -427 30 -41 170 -235 311 -430 321 -443 319 -440 769 -1041
334 -447 376 -498 412 -513 35 -14 87 -16 346 -16 177 0 306 -4 310 -9 3 -5
-6 -53 -20 -107 -86 -320 -222 -996 -232 -1149 -4 -65 -1 -99 20 -180 55 -214
196 -617 337 -960 88 -212 163 -268 296 -221 78 27 370 212 774 489 409 281
658 453 820 565 91 64 237 166 325 227 88 61 279 195 425 297 146 101 364 254
485 338 713 498 1470 1066 1929 1448 141 118 161 166 107 271 -15 31 -163 272
-328 536 -165 264 -308 495 -317 512 l-16 32 116 114 117 114 -5 59 c-4 54
-18 82 -163 339 -87 154 -253 451 -370 660 -116 209 -237 425 -268 480 l-57
101 49 249 c90 454 290 1583 352 1990 5 33 16 105 24 159 28 185 17 259 -45
291 -89 46 -171 6 -613 -302 -316 -220 -817 -590 -1335 -985 -128 -98 -242
-183 -253 -188 -14 -8 -155 -8 -467 0 -246 6 -666 14 -934 19 l-488 7 -57 40
c-32 22 -121 84 -198 139 -393 277 -1219 830 -1648 1104 -293 187 -352 212
-418 176z m636 -595 c478 -318 724 -486 1107 -753 l287 -200 -82 -43 c-45 -23
-221 -117 -391 -207 l-310 -165 -56 92 c-31 50 -207 325 -391 611 -303 470
-474 742 -553 879 -22 37 -31 45 -38 35 -8 -11 -9 -11 -5 2 3 9 0 22 -6 29
-27 28 52 -22 438 -280z m5575 268 c0 -16 -3 -19 -9 -10 -6 9 -35 -19 -102
-100 -121 -146 -342 -386 -1109 -1203 -349 -371 -452 -487 -443 -496 4 -4 220
-131 478 -281 712 -415 828 -486 853 -524 12 -18 89 -154 170 -301 224 -402
316 -566 457 -812 l129 -224 -29 -24 c-30 -24 -771 -518 -1027 -684 -576 -373
-1605 -1008 -2137 -1319 l-144 -84 -231 -24 c-212 -22 -287 -24 -913 -29
l-683 -5 -18 44 c-25 57 -128 349 -248 697 -69 199 -95 286 -86 289 25 8 117
87 375 320 145 130 279 251 300 268 l38 31 -345 6 c-190 4 -380 10 -421 14
l-76 6 53 55 c29 29 163 156 298 281 621 573 1611 1493 2075 1926 619 577 677
628 998 878 481 375 1769 1327 1794 1327 1 0 3 -10 3 -22z m-53 -380 c-3 -8
-6 -5 -6 6 -1 11 2 17 5 13 3 -3 4 -12 1 -19z m-5700 -940 c-3 -8 -6 -5 -6 6
-1 11 2 17 5 13 3 -3 4 -12 1 -19z m2648 -59 c369 -6 694 -14 723 -17 l54 -7
-163 -150 c-90 -82 -353 -328 -584 -545 -583 -547 -964 -904 -1345 -1259 -179
-167 -333 -312 -342 -322 -16 -19 -18 -17 -49 38 -154 273 -372 499 -589 612
-146 76 -332 127 -370 102 -12 -8 -12 -30 -2 -163 35 -430 101 -647 244 -803
68 -74 179 -153 256 -181 26 -9 50 -20 55 -24 4 -3 -70 -82 -163 -176 -94 -93
-174 -180 -177 -193 -7 -30 4 -53 130 -257 76 -123 111 -192 127 -245 12 -41
60 -186 106 -323 46 -137 84 -251 84 -254 0 -7 -165 214 -410 548 -122 168
-273 373 -335 455 -270 362 -515 709 -515 728 0 21 337 620 507 901 212 351
465 728 533 796 44 43 97 77 245 157 234 124 787 414 990 516 l150 76 85 1
c47 0 387 -5 755 -11z m-2375 -533 c0 -2 -8 -10 -17 -17 -16 -13 -17 -12 -4 4
13 16 21 21 21 13z m19 -1317 c67 -38 201 -142 253 -195 35 -37 36 -41 28 -84
-23 -117 -6 -241 40 -290 41 -44 74 -40 126 14 l42 44 7 -43 c8 -55 2 -66 -73
-137 l-60 -58 -54 16 c-258 74 -388 264 -388 566 0 98 9 198 18 198 3 0 30
-14 61 -31z m5916 -1496 c412 -665 406 -655 387 -676 -25 -28 -310 -254 -577
-458 -499 -381 -794 -595 -1465 -1061 -234 -162 -564 -392 -735 -511 -1139
-794 -1818 -1261 -1849 -1273 -13 -5 -77 119 -78 153 -1 38 23 243 42 348 40
228 131 509 242 749 59 127 151 301 169 320 5 6 0 20 -14 35 l-22 26 26 -23
26 -23 99 83 c54 46 136 116 183 156 161 136 576 471 781 629 575 444 867 653
1755 1258 83 57 303 209 490 338 187 130 342 236 345 237 3 0 91 -138 195
-307z m-4425 -1938 c11 -13 10 -14 -4 -9 -9 3 -16 10 -16 15 0 13 6 11 20 -6z
m81 -62 c13 -16 12 -17 -3 -4 -17 13 -22 21 -14 21 2 0 10 -8 17 -17z m80 -60
c13 -16 12 -17 -3 -4 -17 13 -22 21 -14 21 2 0 10 -8 17 -17z m-224 -95 c-3
-8 -6 -5 -6 6 -1 11 2 17 5 13 3 -3 4 -12 1 -19z m464 -95 c13 -16 12 -17 -3
-4 -17 13 -22 21 -14 21 2 0 10 -8 17 -17z m-494 -45 c-3 -8 -6 -5 -6 6 -1 11
2 17 5 13 3 -3 4 -12 1 -19z m544 5 c13 -16 12 -17 -3 -4 -17 13 -22 21 -14
21 2 0 10 -8 17 -17z m-554 -45 c-3 -8 -6 -5 -6 6 -1 11 2 17 5 13 3 -3 4 -12
1 -19z m-10 -50 c-3 -8 -6 -5 -6 6 -1 11 2 17 5 13 3 -3 4 -12 1 -19z m-10
-50 c-3 -8 -6 -5 -6 6 -1 11 2 17 5 13 3 -3 4 -12 1 -19z m-20 -100 c-3 -8 -6
-5 -6 6 -1 11 2 17 5 13 3 -3 4 -12 1 -19z m20 -660 c-3 -8 -6 -5 -6 6 -1 11
2 17 5 13 3 -3 4 -12 1 -19z m113 -323 c0 -5 -5 -3 -10 5 -5 8 -10 20 -10 25
0 6 5 3 10 -5 5 -8 10 -19 10 -25z m30 -80 c0 -5 -5 -3 -10 5 -5 8 -10 20 -10
25 0 6 5 3 10 -5 5 -8 10 -19 10 -25z m58 -143 c13 -29 22 -55 19 -58 -5 -5
-67 139 -66 153 0 4 5 -3 11 -17 7 -14 22 -49 36 -78z"/>
<path d="M6115 6374 c-430 -42 -799 -125 -1058 -240 -347 -153 -668 -433 -820
-714 -58 -107 -58 -106 15 -128 247 -76 540 -138 723 -152 234 -19 432 10 600
89 120 56 187 103 293 205 191 185 317 403 428 743 52 160 55 189 18 203 -29
11 -17 12 -199 -6z m-130 -291 c-32 -287 -104 -455 -259 -608 -107 -107 -205
-161 -351 -196 -77 -18 -111 -20 -235 -16 -122 4 -158 9 -230 32 -150 48 -241
108 -308 203 l-41 59 37 35 c104 97 258 208 385 278 l78 42 -7 -94 c-15 -213
52 -368 159 -368 34 0 46 6 78 40 73 76 107 273 77 443 l-14 77 62 20 c92 28
470 102 562 109 10 1 12 -12 7 -56z"/>
</g>
</svg>
